PathFileType	4	(X/Y/Z)	/Users/itak/Documents/Research/Walk-IL/dataset/trc/00432_00167.trc
DataRate	CameraRate	NumFrames	NumMarkers	Units	OrigDataRate	OrigDataStartFrame	OrigNumFrames
100.000000	100.000000	4	53	mm	100.000000	0	693
Frame#	Time	RPSI			LPSI			L3			STRN			T10			C7			CLAV			RBAK			LBAK			LSHO			LUPA			LAEL			LAOL			LWTS			LWPS			LFRA			LIFD			LHPS			LHTS			RSHO			RUPA			RAEL			RAOL			RWTS			RWPS			RFRA			RIFD			RHTS			RHPS			RBHD			LFHD			RFHD			LBHD			LHIP			RHIP			RASI			LASI			LKNE			LTHI			LANK			LTIP			LTOE			LMT1			LMT5			LHEE			RKNE			RTHI			RANK			RTIP			RTOE			RMT1			RMT5			RHEE			
		X1	Y1	Z1	X2	Y2	Z2	X3	Y3	Z3	X4	Y4	Z4	X5	Y5	Z5	X6	Y6	Z6	X7	Y7	Z7	X8	Y8	Z8	X9	Y9	Z9	X10	Y10	Z10	X11	Y11	Z11	X12	Y12	Z12	X13	Y13	Z13	X14	Y14	Z14	X15	Y15	Z15	X16	Y16	Z16	X17	Y17	Z17	X18	Y18	Z18	X19	Y19	Z19	X20	Y20	Z20	X21	Y21	Z21	X22	Y22	Z22	X23	Y23	Z23	X24	Y24	Z24	X25	Y25	Z25	X26	Y26	Z26	X27	Y27	Z27	X28	Y28	Z28	X29	Y29	Z29	X30	Y30	Z30	X31	Y31	Z31	X32	Y32	Z32	X33	Y33	Z33	X34	Y34	Z34	X35	Y35	Z35	X36	Y36	Z36	X37	Y37	Z37	X38	Y38	Z38	X39	Y39	Z39	X40	Y40	Z40	X41	Y41	Z41	X42	Y42	Z42	X43	Y43	Z43	X44	Y44	Z44	X45	Y45	Z45	X46	Y46	Z46	X47	Y47	Z47	X48	Y48	Z48	X49	Y49	Z49	X50	Y50	Z50	X51	Y51	Z51	X52	Y52	Z52	X53	Y53	Z53	

1	0	-1198.820190429688	973.5245361328125	-449.0560302734375	-1128.750366210938	972.8751831054688	-571.4028930664062	-1161.806518554688	1067.624389648438	-489.9088439941406	-915.4013061523438	1255.894897460938	-375.9999389648438	-1175.937133789062	1192.771606445312	-500.8616943359375	-1115.790283203125	1459.034423828125	-462.9435729980469	-944.9271240234375	1370.172485351562	-396.3457946777344	-1217.891357421875	1343.63720703125	-403.8787536621094	-1104.927734375	1412.087158203125	-564.8148193359375	-976.5303344726562	1426.360595703125	-594.0570678710938	-955.0113525390625	1308.776733398438	-691.2059326171875	-930.6695556640625	1094.519409179688	-719.9075317382812	-1030.748413085938	1084.824462890625	-692.1224975585938	-878.3975219726562	890.9149169921875	-654.7384033203125	-901.1650390625	876.28857421875	-724.2828979492188	-910.9265747070312	1007.128173828125	-723.6229858398438	-877.4482421875	721.3883666992188	-657.8115234375	-897.0305786132812	795.2034301757812	-721.4525146484375	-862.5181274414062	800.3336791992188	-658.7158203125	-1120.838745117188	1430.371459960938	-287.5699768066406	-1171.064086914062	1372.233154296875	-224.1489715576172	-1201.838989257812	1086.036254882812	-171.1666564941406	-1236.1376953125	1069.779907226562	-227.4107360839844	-1092.7802734375	886.7637939453125	-163.4277191162109	-1177.246704101562	869.6586303710938	-144.3964691162109	-1202.847534179688	1028.125732421875	-160.2471008300781	-1091.509643554688	726.9257202148438	-153.0569763183594	-1083.757690429688	786.53515625	-144.2415008544922	-1159.405151367188	784.4024658203125	-136.2007904052734	-1069.374633789062	1652.959716796875	-353.6038208007812	-875.3138427734375	1659.307983398438	-426.5350952148438	-937.7517700195312	1661.037841796875	-311.438720703125	-998.0901489257812	1657.075561523438	-517.3697509765625	-956.2486572265625	861.9912109375	-606.1390991210938	-1171.444946289062	864.1505737304688	-271.2377624511719	-1047.636962890625	903.3763427734375	-272.5153198242188	-906.8934326171875	899.183349609375	-489.1878967285156	-986.3375854492188	437.3116149902344	-561.3284301757812	-949.7901611328125	589.33642578125	-575.2745971679688	-1066.864013671875	34.46968460083008	-578.0267333984375	-995.5477905273438	284.839111328125	-568.1082153320312	-898.158935546875	43.38869094848633	-414.0622863769531	-977.2666015625	49.24789047241211	-424.4151000976562	-926.243408203125	46.6221923828125	-525.1248168945312	-1137.6748046875	37.36277770996094	-557.6896362304688	-1137.07421875	466.7486572265625	-293.5639953613281	-1139.390625	726.5867309570312	-243.2709503173828	-1167.34716796875	43.54542922973633	-317.78759765625	-1144.09912109375	319.8586120605469	-284.7775268554688	-953.4735717773438	48.88340377807617	-276.2500915527344	-996.5557250976562	53.75387573242188	-333.9722290039062	-1054.640380859375	49.16016006469727	-242.7801513671875	-1210.39697265625	34.93196105957031	-387.3088989257812	
2	0.01	-1198.822875976562	973.5135498046875	-449.0254821777344	-1128.765502929688	972.814208984375	-571.3438110351562	-1161.825805664062	1067.58642578125	-489.8676452636719	-915.385009765625	1255.89501953125	-376.0472106933594	-1175.944702148438	1192.743774414062	-500.8252258300781	-1115.803100585938	1459.002319335938	-462.9756469726562	-944.917724609375	1370.168701171875	-396.4001159667969	-1217.866088867188	1343.618530273438	-403.8502502441406	-1104.97265625	1412.040893554688	-564.8438720703125	-976.625244140625	1426.334350585938	-594.134765625	-955.092529296875	1308.708251953125	-691.250732421875	-930.7319946289062	1094.459106445312	-719.9401245117188	-1030.720947265625	1084.770263671875	-692.0655517578125	-878.3048095703125	890.9136962890625	-654.7290649414062	-901.1097412109375	876.2510986328125	-724.26416015625	-910.8916625976562	1007.089477539062	-723.6288452148438	-877.1953125	721.3916625976562	-657.6963500976562	-896.950927734375	795.1487426757812	-721.4146118164062	-862.3629150390625	800.3483276367188	-658.6792602539062	-1120.774780273438	1430.369750976562	-287.5935668945312	-1170.942749023438	1372.201049804688	-224.1318511962891	-1201.614501953125	1086.00439453125	-171.1528625488281	-1235.924926757812	1069.725341796875	-227.3960113525391	-1092.427612304688	886.7711791992188	-163.5426635742188	-1176.8681640625	869.6159057617188	-144.49169921875	-1202.574096679688	1028.094970703125	-160.2549591064453	-1091.09814453125	726.9445190429688	-153.1535339355469	-1083.365356445312	786.6289672851562	-144.3445587158203	-1158.973388671875	784.3671264648438	-136.2958526611328	-1069.266845703125	1653.0048828125	-353.7369689941406	-875.2218627929688	1659.31787109375	-426.7380981445312	-937.699951171875	1661.069458007812	-311.5621643066406	-998.10546875	1657.08154296875	-517.5159912109375	-956.2646484375	861.9825439453125	-606.15576171875	-1171.404174804688	864.1538696289062	-271.1681518554688	-1047.532104492188	903.3804321289062	-272.4868469238281	-906.8927612304688	899.181640625	-489.2225952148438	-986.3334350585938	437.3257446289062	-561.3327026367188	-949.8277587890625	589.323974609375	-575.307861328125	-1066.87353515625	34.46744918823242	-578.0283203125	-995.54736328125	284.8377075195312	-568.1063232421875	-898.162353515625	43.39130401611328	-414.0650024414062	-977.286865234375	49.24061584472656	-424.4060668945312	-926.2552490234375	46.63043594360352	-525.110595703125	-1137.68212890625	37.34703063964844	-557.697998046875	-1137.034301757812	466.7392883300781	-293.5478515625	-1139.335693359375	726.5806274414062	-243.2317810058594	-1167.350219726562	43.5487060546875	-317.7881164550781	-1144.103149414062	319.865966796875	-284.7442626953125	-953.4811401367188	48.88320922851562	-276.2516784667969	-996.5530395507812	53.75393676757812	-333.9758911132812	-1054.643798828125	49.15849685668945	-242.7867279052734	-1210.400268554688	34.93029022216797	-387.3067626953125	
3	0.02	-1198.826293945312	973.5025024414062	-448.982666015625	-1128.786987304688	972.7559204101562	-571.2824096679688	-1161.843505859375	1067.54150390625	-489.8127746582031	-915.3556518554688	1255.894409179688	-376.1116333007812	-1175.94921875	1192.703369140625	-500.7709350585938	-1115.81298828125	1458.96630859375	-463.0108337402344	-944.9017333984375	1370.165283203125	-396.4615173339844	-1217.828491210938	1343.595336914062	-403.8094177246094	-1105.02392578125	1411.988525390625	-564.880615234375	-976.7435913085938	1426.30517578125	-594.2305297851562	-955.1890869140625	1308.626220703125	-691.3065795898438	-930.8046875	1094.389526367188	-719.97509765625	-1030.640991210938	1084.668701171875	-691.9819946289062	-878.1775512695312	890.914794921875	-654.7052612304688	-901.0203247070312	876.2040405273438	-724.2244262695312	-910.8433837890625	1007.041076660156	-723.627685546875	-876.8927612304688	721.400634765625	-657.543212890625	-896.8330688476562	795.081787109375	-721.3390502929688	-862.1656494140625	800.369384765625	-658.6188354492188	-1120.682739257812	1430.368286132812	-287.6217041015625	-1170.780029296875	1372.161254882812	-224.1175384521484	-1201.328125	1085.963745117188	-171.1335906982422	-1235.655883789062	1069.657836914062	-227.3774566650391	-1091.998168945312	886.7740478515625	-163.6803894042969	-1176.411987304688	869.558349609375	-144.6017913818359	-1202.234375	1028.056762695312	-160.2579193115234	-1090.594360351562	726.9568481445312	-153.2881011962891	-1082.878051757812	786.7225341796875	-144.4811096191406	-1158.454467773438	784.3202514648438	-136.418701171875	-1069.144287109375	1653.0546875	-353.899169921875	-875.1340942382812	1659.3349609375	-426.9784240722656	-937.62939453125	1661.115600585938	-311.7197875976562	-998.1282348632812	1657.086791992188	-517.6937866210938	-956.29052734375	861.9756469726562	-606.1804809570312	-1171.34423828125	864.161376953125	-271.08544921875	-1047.40966796875	903.3801879882812	-272.4583435058594	-906.8922729492188	899.1754760742188	-489.270263671875	-986.3361206054688	437.3436279296875	-561.3441162109375	-949.8802490234375	589.3069458007812	-575.3587036132812	-1066.882202148438	34.4625244140625	-578.0309448242188	-995.5482177734375	284.8350219726562	-568.1058349609375	-898.17236328125	43.39619827270508	-414.0654296875	-977.3104248046875	49.23242568969727	-424.3957824707031	-926.2706909179688	46.64208602905273	-525.0940551757812	-1137.690063476562	37.32777404785156	-557.708984375	-1136.986328125	466.7301025390625	-293.5318908691406	-1139.269165039062	726.5730590820312	-243.1823577880859	-1167.353881835938	43.55100631713867	-317.788330078125	-1144.100830078125	319.8700561523438	-284.7125854492188	-953.4899291992188	48.88299942016602	-276.254150390625	-996.55078125	53.75415802001953	-333.9793395996094	-1054.647583007812	49.15761184692383	-242.7939147949219	-1210.405639648438	34.92777252197266	-387.3031616210938	
4	0.03	-1198.829833984375	973.4935913085938	-448.927001953125	-1128.813842773438	972.7091064453125	-571.2252197265625	-1161.85498046875	1067.493041992188	-489.7468872070312	-915.3101196289062	1255.892944335938	-376.1930236816406	-1175.947387695312	1192.649658203125	-500.6972961425781	-1115.816162109375	1458.930053710938	-463.0456237792969	-944.8770141601562	1370.1630859375	-396.5252075195312	-1217.777099609375	1343.568969726562	-403.7550659179688	-1105.077392578125	1411.934448242188	-564.9226684570312	-976.87890625	1426.276123046875	-594.3389892578125	-955.2950439453125	1308.536010742188	-691.3714599609375	-930.880615234375	1094.317016601562	-720.00830078125	-1030.482666015625	1084.501831054688	-691.8662109375	-878.0156860351562	890.920166015625	-654.661376953125	-900.8906860351562	876.150146484375	-724.1573486328125	-910.7818603515625	1006.985168457031	-723.615478515625	-876.5588989257812	721.416748046875	-657.3535766601562	-896.6714477539062	795.0075073242188	-721.21484375	-861.933837890625	800.3973388671875	-658.530029296875	-1120.560913085938	1430.367431640625	-287.6523132324219	-1170.576782226562	1372.116455078125	-224.1103668212891	-1200.989868164062	1085.915283203125	-171.1091766357422	-1235.341552734375	1069.58154296875	-227.3566131591797	-1091.514282226562	886.7694091796875	-163.8300476074219	-1175.906982421875	869.4876098632812	-144.7184143066406	-1201.844116210938	1028.01220703125	-160.2543029785156	-1090.025146484375	726.9585571289062	-153.4606323242188	-1082.320434570312	786.8019409179688	-144.6501922607422	-1157.879272460938	784.2618408203125	-136.5700378417969	-1069.017822265625	1653.103759765625	-354.0797119140625	-875.0651245117188	1659.360473632812	-427.2404479980469	-937.5399780273438	1661.177124023438	-311.9068603515625	-998.1600952148438	1657.089599609375	-517.891845703125	-956.3250732421875	861.9719848632812	-606.2133178710938	-1171.26318359375	864.1730346679688	-270.9938049316406	-1047.279907226562	903.37255859375	-272.43505859375	-906.8919067382812	899.1629638671875	-489.331298828125	-986.3485717773438	437.3642578125	-561.3648071289062	-949.94677734375	589.2864379882812	-575.4281005859375	-1066.888549804688	34.45451354980469	-578.03515625	-995.5511474609375	284.8309631347656	-568.10791015625	-898.189453125	43.40371322631836	-414.0635375976562	-977.3358154296875	49.22463607788086	-424.3851928710938	-926.28857421875	46.65678787231445	-525.0761108398438	-1137.697875976562	37.30590438842773	-557.7222900390625	-1136.93212890625	466.7227478027344	-293.5186462402344	-1139.193725585938	726.5648193359375	-243.1259460449219	-1167.357666015625	43.55167007446289	-317.7880859375	-1144.089599609375	319.8695983886719	-284.6871032714844	-953.4989013671875	48.88291168212891	-276.2571411132812	-996.54931640625	53.7544059753418	-333.9823303222656	-1054.6513671875	49.15802383422852	-242.8012542724609	-1210.413452148438	34.92453002929688	-387.2978820800781	
